<svg width="12" height="12" viewBox="0 0 12 12" fill="none" xmlns="http://www.w3.org/2000/svg">
<path d="M8 4.5C8 5.60457 7.10457 6.5 6 6.5C4.89543 6.5 4 5.60457 4 4.5C4 3.39543 4.89543 2.5 6 2.5C7.10457 2.5 8 3.39543 8 4.5Z" fill="#626B74"/>
<path fill-rule="evenodd" clip-rule="evenodd" d="M8.33547 11.5285C7.61764 11.8321 6.82843 12 6 12C6.00001 12 5.99999 12 6 12C5.7929 12 5.58823 11.9895 5.38653 11.969C4.64768 11.894 3.94846 11.6849 3.31357 11.3665C2.67359 11.0455 2.09898 10.6134 1.61505 10.0954C1.61505 10.0954 1.61505 10.0954 1.61505 10.0954C0.613195 9.02321 0 7.58321 0 6C0 2.68629 2.68629 0 6 0C9.31371 0 12 2.68629 12 6C12 8.48528 10.489 10.6176 8.33547 11.5285ZM2.54606 8.88466C3.44371 8.02685 4.66031 7.5 5.99996 7.5C7.33963 7.5 8.55625 8.02687 9.4539 8.88471C10.1069 8.10365 10.5 7.09772 10.5 6C10.5 3.51472 8.48528 1.5 6 1.5C3.51472 1.5 1.5 3.51472 1.5 6C1.5 7.0977 1.89304 8.10361 2.54606 8.88466Z" fill="#626B74"/>
</svg>
