<svg width="12" height="12" viewBox="0 0 12 12" fill="none" xmlns="http://www.w3.org/2000/svg">
<path fill-rule="evenodd" clip-rule="evenodd" d="M6 0C9.31371 0 12 2.68629 12 6C12 9.31371 9.31371 12 6 12C2.68629 12 0 9.31371 0 6C0 2.68629 2.68629 0 6 0ZM6 1.5C3.51472 1.5 1.5 3.51472 1.5 6C1.5 8.48528 3.51472 10.5 6 10.5C8.48528 10.5 10.5 8.48528 10.5 6C10.5 3.51472 8.48528 1.5 6 1.5ZM6.49873 3.45593C6.47592 3.06223 6.14942 2.75 5.75 2.75C5.33579 2.75 5 3.08579 5 3.5V6.5L5.00127 6.54407C5.02408 6.93777 5.35058 7.25 5.75 7.25H7.75L7.79407 7.24873C8.18777 7.22592 8.5 6.89942 8.5 6.5L8.49873 6.45593C8.47591 6.06223 8.14942 5.75 7.75 5.75H6.5V3.5L6.49873 3.45593Z" fill="#626B74"/>
</svg>
