<svg width="20" height="20" viewBox="0 0 20 20" fill="none" xmlns="http://www.w3.org/2000/svg">
<path fill-rule="evenodd" clip-rule="evenodd" d="M8.33333 0C12.9357 0 16.6667 3.73096 16.6667 8.33333C16.6667 10.1836 16.0637 11.893 15.0435 13.2757L19.6339 17.8661C20.122 18.3543 20.122 19.1457 19.6339 19.6339C19.1653 20.1025 18.4171 20.1213 17.9261 19.6901L17.8661 19.6339L13.2757 15.0435C11.893 16.0637 10.1836 16.6667 8.33333 16.6667C3.73096 16.6667 0 12.9357 0 8.33333C0 3.73096 3.73096 0 8.33333 0ZM8.33333 2.5C5.11167 2.5 2.5 5.11167 2.5 8.33333C2.5 11.555 5.11167 14.1667 8.33333 14.1667C11.555 14.1667 14.1667 11.555 14.1667 8.33333C14.1667 5.11167 11.555 2.5 8.33333 2.5Z" fill="#43484D"/>
</svg>
